<?xml version="1.0" standalone="no"?>
<!DOCTYPE svg PUBLIC "-//W3C//DTD SVG 20010904//EN"
 "http://www.w3.org/TR/2001/REC-SVG-20010904/DTD/svg10.dtd">
<svg version="1.0" xmlns="http://www.w3.org/2000/svg"
 width="500.000000pt" height="500.000000pt" viewBox="0 0 500.000000 500.000000"
 preserveAspectRatio="xMidYMid meet">

<g transform="translate(0.000000,500.000000) scale(0.100000,-0.100000)"
fill="#FFFFFF" stroke="none">
<path d="M1101 2513 c-140 -373 -256 -684 -259 -691 -3 -10 30 -12 158 -10
l162 3 45 120 c34 92 43 127 37 150 -4 17 -7 68 -8 115 0 97 23 167 101 300
48 81 174 252 181 246 2 -3 -6 -33 -19 -68 -44 -123 -24 -251 47 -307 36 -29
128 -61 172 -61 33 0 180 33 186 42 3 4 80 208 171 453 35 94 81 217 103 275
l40 105 -156 3 c-85 1 -159 -1 -163 -5 -4 -5 -56 -136 -114 -293 -59 -157
-111 -289 -117 -295 -7 -7 -8 13 -4 60 3 39 10 140 16 225 5 85 12 190 16 233
l5 77 -173 0 -174 0 -253 -677z"/>
<path d="M2267 3183 c-3 -5 -48 -123 -100 -263 -53 -140 -121 -320 -151 -400
-31 -80 -56 -148 -56 -151 0 -5 350 87 356 94 2 2 149 390 219 577 23 63 46
123 50 133 7 16 -4 17 -153 17 -89 0 -163 -3 -165 -7z"/>
<path d="M2641 3168 c-78 -209 -251 -681 -251 -685 0 -3 7 -2 15 1 9 3 143 40
298 81 155 42 290 78 299 81 19 6 92 81 258 264 163 180 222 242 227 237 2 -3
-30 -94 -71 -203 -41 -110 -73 -200 -72 -201 2 -2 59 12 127 31 68 19 126 32
128 30 9 -9 -18 -23 -143 -78 -72 -30 -135 -61 -142 -68 -6 -7 -71 -173 -144
-368 -72 -195 -135 -361 -139 -369 -12 -20 -21 103 -22 299 -1 96 -4 205 -8
242 l-6 67 -40 -19 c-22 -10 -87 -38 -145 -63 -58 -25 -194 -84 -302 -131
-108 -47 -201 -86 -206 -86 -5 0 -42 -89 -82 -197 -40 -109 -75 -204 -77 -210
-4 -10 31 -13 155 -13 l160 0 17 43 c9 23 55 141 100 262 46 121 87 229 91
240 8 18 9 17 15 -10 4 -16 7 -86 8 -155 1 -69 4 -182 8 -253 l6 -127 500 2
500 3 43 120 c24 66 44 123 44 128 0 4 -83 7 -185 7 -141 0 -185 3 -185 12 0
17 111 310 122 322 4 6 77 10 160 10 l153 1 42 110 c23 61 42 118 43 128 0 15
-14 17 -150 17 -82 0 -150 3 -150 8 1 4 24 69 53 146 l52 138 162 -1 162 -2
14 28 c8 15 26 60 40 98 14 39 28 78 32 88 7 16 -21 17 -491 17 l-499 0 -47
-58 c-25 -31 -54 -67 -65 -79 -10 -11 -63 -75 -117 -142 -55 -66 -101 -119
-104 -117 -2 2 28 89 67 192 39 103 71 191 71 196 0 4 -72 8 -160 8 -157 0
-161 0 -169 -22z"/>
<path d="M2008 2102 l-176 -76 -40 -105 -40 -106 156 -3 c85 -1 159 1 163 5 4
5 35 80 67 168 33 88 63 168 67 178 5 11 3 17 -6 16 -8 0 -93 -35 -191 -77z"/>
<path d="M1700 1978 c-68 -26 -269 -32 -308 -10 -13 8 -25 12 -27 10 -1 -2 -5
-40 -8 -86 l-5 -82 175 2 176 3 33 85 c18 47 33 88 34 93 0 10 -8 8 -70 -15z"/>
</g>
</svg>
