<?xml version="1.0" standalone="no"?>
<!DOCTYPE svg PUBLIC "-//W3C//DTD SVG 20010904//EN"
 "http://www.w3.org/TR/2001/REC-SVG-20010904/DTD/svg10.dtd">
<svg version="1.0" xmlns="http://www.w3.org/2000/svg"
 width="499.000000pt" height="142.000000pt" viewBox="0 0 499.000000 142.000000"
 preserveAspectRatio="xMidYMid meet">

<g transform="translate(0.000000,142.000000) scale(0.100000,-0.100000)"
fill="#ecbe34" stroke="none">
<path d="M2851 1324 c-117 -84 -206 -130 -278 -143 -52 -10 -113 -1 -139 20
-23 19 -44 65 -44 97 0 39 -24 60 -46 41 -21 -17 -12 -88 16 -135 77 -123 267
-106 478 43 35 25 65 43 68 41 2 -3 -18 -71 -46 -152 -51 -153 -81 -209 -209
-387 -68 -94 -126 -198 -135 -245 -7 -32 7 -84 27 -96 25 -16 76 -8 106 17 41
35 66 93 150 345 69 207 74 219 138 305 155 208 276 281 329 200 41 -63 15
-182 -143 -647 -51 -149 -65 -200 -56 -209 6 -6 18 -9 26 -6 16 6 92 215 174
482 30 99 66 198 79 221 36 63 146 161 196 175 56 15 105 2 132 -34 38 -52 28
-126 -43 -332 -222 -638 -227 -660 -165 -735 32 -38 100 -59 122 -37 19 20 9
33 -32 41 -103 19 -95 103 45 492 34 93 79 223 102 289 83 248 44 370 -118
369 -74 0 -124 -24 -194 -94 l-49 -49 -7 42 c-5 29 -19 53 -45 79 -32 32 -44
38 -81 38 -74 0 -139 -42 -236 -154 -24 -27 -43 -45 -43 -40 0 4 14 51 32 105
30 93 32 130 6 128 -7 0 -60 -34 -117 -75z m-152 -680 c-53 -154 -77 -194
-120 -194 -17 0 -9 60 12 103 25 48 141 218 146 213 2 -1 -15 -57 -38 -122z"/>
<path d="M181 1304 c-56 -87 -78 -185 -62 -267 17 -79 59 -131 140 -169 l66
-32 -23 -90 c-25 -101 -31 -205 -13 -259 16 -46 69 -93 123 -108 87 -24 206
25 284 115 40 45 40 46 0 -72 l-23 -67 -106 -26 c-61 -15 -124 -37 -145 -52
-113 -75 -78 -237 52 -237 83 0 167 83 217 214 12 31 27 56 33 56 22 0 132 58
175 92 24 20 58 54 76 77 l33 42 7 -30 c23 -107 135 -119 235 -25 l46 43 40
-14 c53 -19 73 -18 119 5 22 11 40 20 40 20 0 0 2 -12 3 -28 8 -114 138 -124
238 -16 l42 44 6 -34 c8 -42 56 -86 94 -86 38 0 109 38 133 71 24 35 39 37 39
7 1 -42 45 -78 96 -78 44 0 111 38 150 85 19 24 53 78 75 121 35 68 38 79 26
92 -21 20 -31 11 -73 -68 -48 -92 -106 -157 -150 -169 -45 -12 -62 -6 -71 26
-9 39 9 105 118 421 78 224 99 296 90 305 -22 22 -44 -7 -73 -94 -15 -46 -35
-103 -44 -127 l-16 -42 -28 24 c-39 33 -90 40 -137 21 -78 -33 -138 -113 -197
-265 -63 -161 -128 -251 -193 -269 -44 -12 -61 -5 -70 26 -9 39 9 105 119 421
79 227 99 295 89 305 -8 8 -16 8 -27 2 -9 -6 -56 -124 -104 -264 -49 -139
-100 -277 -115 -307 -34 -69 -75 -104 -124 -104 -56 0 -64 14 -37 69 70 139
92 292 50 348 -29 39 -88 58 -137 43 -82 -24 -153 -116 -222 -283 -47 -118
-106 -209 -167 -262 -48 -41 -138 -91 -138 -76 0 11 132 384 179 506 35 89 38
110 17 118 -20 8 -27 -3 -86 -140 -90 -210 -202 -368 -293 -412 -52 -25 -126
-27 -168 -5 -70 36 -77 169 -18 352 11 32 11 32 79 32 225 0 418 124 451 290
19 97 -16 175 -95 211 -88 40 -157 19 -252 -75 -55 -55 -81 -93 -121 -171 -28
-55 -58 -121 -68 -148 -15 -41 -21 -47 -39 -41 -49 15 -97 46 -123 80 -52 68
-41 205 23 300 28 40 28 67 2 72 -12 2 -28 -12 -47 -44z m581 -14 c56 -16 88
-60 88 -123 0 -123 -107 -227 -279 -272 -34 -9 -87 -15 -116 -13 l-54 3 38 90
c81 193 180 307 281 324 3 1 22 -4 42 -9z m593 -360 c14 -15 18 -35 17 -75 -1
-53 -34 -171 -53 -190 -7 -7 -8 -5 -4 6 3 9 -1 22 -10 29 -12 10 -18 10 -31
-1 -11 -9 -15 -29 -13 -77 2 -62 1 -65 -37 -104 -65 -68 -129 -82 -148 -32
-33 86 47 327 141 421 35 36 49 43 81 43 26 0 45 -7 57 -20z m764 -6 c12 -15
21 -37 21 -50 0 -39 -90 -253 -134 -318 -119 -175 -216 -114 -156 100 24 85
68 179 108 232 50 66 125 82 161 36z m-1486 -676 c-37 -95 -101 -158 -160
-158 -29 0 -63 37 -63 68 0 58 37 86 145 113 100 25 97 26 78 -23z"/>
<path d="M4826 1198 c-7 -13 -26 -60 -41 -105 l-26 -82 -62 -3 c-54 -3 -62 -5
-62 -23 0 -17 8 -20 48 -23 31 -2 47 -8 47 -17 0 -24 -80 -238 -121 -322 -62
-130 -123 -187 -171 -162 -35 19 -19 99 61 319 39 108 71 204 71 213 0 28 -39
21 -52 -10 -7 -16 -13 -30 -15 -32 -2 -3 -14 5 -26 18 -53 49 -135 46 -198 -7
-45 -37 -102 -129 -135 -215 -55 -147 -117 -238 -188 -274 -36 -19 -123 -21
-155 -4 -35 19 -54 75 -46 136 l6 51 67 22 c131 43 230 111 258 179 41 98 -29
172 -136 143 -113 -30 -250 -266 -250 -429 0 -177 206 -231 350 -91 l48 47 7
-35 c9 -48 55 -92 95 -92 41 0 101 32 133 70 31 36 37 37 37 7 0 -53 55 -86
119 -72 17 3 48 24 70 46 l41 39 6 -25 c9 -34 50 -65 88 -65 49 1 108 33 153
84 52 59 119 186 110 209 -12 31 -37 17 -63 -35 -64 -127 -111 -180 -176 -199
-23 -6 -33 -4 -49 12 -27 27 -21 62 48 264 84 246 71 225 142 225 33 0 63 5
66 10 13 21 -17 40 -61 40 -24 0 -44 3 -44 7 0 4 12 44 27 89 25 77 26 114 4
114 -6 0 -17 -10 -25 -22z m-788 -289 c4 -45 -27 -84 -95 -121 -58 -32 -153
-70 -153 -62 0 24 81 151 116 184 40 37 50 41 87 38 40 -3 42 -4 45 -39z m401
15 c29 -37 26 -67 -15 -170 -75 -186 -142 -283 -206 -298 -62 -14 -81 57 -49
183 58 231 197 377 270 285z"/>
</g>
</svg>
